<?xml version="1.0" standalone="no"?>
<!DOCTYPE svg PUBLIC "-//W3C//DTD SVG 20010904//EN"
 "http://www.w3.org/TR/2001/REC-SVG-20010904/DTD/svg10.dtd">
<svg version="1.0" xmlns="http://www.w3.org/2000/svg"
 width="300.000000pt" height="231.000000pt" viewBox="0 0 300.000000 231.000000"
 preserveAspectRatio="xMidYMid meet">
<metadata>
Created by potrace 1.10, written by Peter Selinger 2001-2011
</metadata>
<g transform="translate(0.000000,231.000000) scale(0.100000,-0.100000)"
fill="#d3b2f1" stroke="none">
<path d="M895 1524 c-11 -3 -47 -9 -80 -15 -122 -23 -301 -76 -447 -134 -19
-8 -24 -40 -9 -49 5 -4 43 7 83 24 100 40 473 139 483 128 1 -2 -21 -64 -51
-138 -64 -162 -92 -266 -75 -283 14 -14 12 -17 45 88 16 50 48 136 72 191 24
56 46 113 49 127 4 14 15 27 26 30 10 3 19 12 19 21 0 13 -10 16 -47 15 -27
-1 -57 -3 -68 -5z"/>
<path d="M2590 1498 c-42 -103 -120 -312 -120 -324 0 -19 -99 -69 -112 -56 -7
7 -6 28 2 62 7 28 10 54 7 57 -3 3 -37 -28 -76 -68 -39 -40 -73 -70 -76 -67
-4 3 8 34 25 67 29 58 32 81 9 81 -5 0 -14 -10 -20 -22 -14 -31 -101 -78 -161
-87 -26 -5 -48 -6 -48 -3 0 2 11 13 25 23 28 23 118 149 160 226 25 43 27 54
16 67 -63 76 -221 -156 -306 -449 -41 -144 -30 -237 29 -219 82 25 154 211
113 293 -15 30 -15 31 8 31 13 0 48 13 79 29 31 17 56 29 56 27 0 -2 -7 -18
-16 -36 -12 -24 -14 -38 -7 -49 18 -28 39 -23 90 24 28 25 53 45 56 45 3 0 4
-15 3 -32 -1 -27 3 -34 22 -36 13 -2 41 8 64 23 22 15 42 25 44 23 2 -3 0 -18
-5 -36 -7 -22 -6 -34 4 -42 16 -13 20 -7 29 45 4 22 39 120 78 217 39 97 68
184 65 192 -9 23 -26 20 -37 -6z m-407 -75 c-22 -58 -160 -269 -170 -259 -7 7
82 172 123 229 34 47 59 63 47 30z m-152 -377 c4 -72 -26 -167 -66 -214 -30
-35 -40 -23 -38 41 1 44 43 202 61 231 8 13 42 -32 43 -58z"/>
<path d="M413 1233 c-59 -127 -143 -313 -143 -319 0 -2 9 -4 19 -4 19 0 35 25
93 142 18 38 33 56 41 52 8 -3 56 9 108 26 52 18 132 42 178 54 82 22 109 40
78 52 -32 12 -259 -58 -370 -114 -4 -2 7 20 24 50 17 29 42 77 55 105 22 51
22 53 4 63 -10 5 -21 10 -25 10 -3 0 -31 -53 -62 -117z"/>
<path d="M955 1211 c-67 -53 -107 -113 -88 -132 16 -16 55 -4 91 26 36 30 42
31 42 6 0 -33 37 -36 79 -7 38 27 57 33 47 17 -12 -19 13 -61 36 -61 36 0 192
169 174 188 -4 4 -28 -16 -54 -43 -54 -58 -100 -95 -119 -95 -9 0 -8 12 7 49
10 27 16 52 13 55 -13 13 -25 5 -38 -26 -13 -33 -97 -89 -111 -75 -4 3 3 25
14 47 18 37 18 42 4 47 -9 4 -18 1 -20 -5 -4 -13 -124 -102 -136 -102 -19 0
41 63 93 98 44 29 57 42 48 51 -16 16 -15 16 -82 -38z"/>
<path d="M1380 1230 c-28 -28 -50 -64 -60 -99 -7 -26 -5 -36 11 -52 22 -22 47
-19 89 10 21 15 33 33 67 99 2 6 77 21 81 17 2 -1 -6 -22 -18 -45 -24 -48 -23
-93 3 -98 9 -2 40 16 70 43 l52 46 3 -36 c3 -29 7 -35 26 -35 13 0 39 11 59
24 l36 25 -5 -28 c-3 -16 -1 -31 4 -35 12 -7 42 31 42 54 0 23 35 53 98 84 28
15 52 29 52 32 0 10 -74 -7 -98 -22 -22 -14 -22 -14 -16 12 6 22 4 25 -12 22
-11 -2 -25 -20 -35 -47 -13 -36 -25 -49 -63 -68 -42 -21 -47 -22 -53 -7 -3 9
-1 35 5 58 13 50 0 71 -24 38 -26 -37 -119 -123 -122 -113 -2 5 11 36 27 70
19 37 27 62 20 66 -5 4 -15 2 -22 -3 -15 -12 -135 -23 -142 -12 -11 18 -58 17
-75 0z m55 -21 c11 -17 -3 -55 -34 -88 -57 -61 -67 -20 -14 60 27 40 37 47 48
28z"/>
</g>
</svg>
